<svg id="logo" xmlns="http://www.w3.org/2000/svg" width="34" height="36" viewBox="0 0 34 36">
  <metadata><?xpacket begin="﻿" id="W5M0MpCehiHzreSzNTczkc9d"?>
<x:xmpmeta xmlns:x="adobe:ns:meta/" x:xmptk="Adobe XMP Core 5.6-c140 79.160451, 2017/05/06-01:08:21        ">
   <rdf:RDF xmlns:rdf="http://www.w3.org/1999/02/22-rdf-syntax-ns#">
      <rdf:Description rdf:about=""/>
   </rdf:RDF>
</x:xmpmeta>
                                                                                                    
                                                                                                    
                                                                                                    
                                                                                                    
                                                                                                    
                                                                                                    
                                                                                                    
                                                                                                    
                                                                                                    
                                                                                                    
                                                                                                    
                                                                                                    
                                                                                                    
                                                                                                    
                                                                                                    
                                                                                                    
                                                                                                    
                                                                                                    
                                                                                                    
                                                                                                    
                           
<?xpacket end="w"?></metadata>
<defs>
    <style>
      .cls-1 {
        fill: #fff;
        fill-rule: evenodd;
      }
    </style>
  </defs>
  <path class="cls-1" d="M291.732,413.252V436.01h0.034l4.78-6.383V406.773Zm-11.5,15.312v7.446h4.781v-13.8Zm5.684-7.608V436.01h4.88V414.445Zm16.379-7.7V436.01l-4.846-6.383V406.773l4.846,6.479h0Zm11.534,15.312v7.446h-4.78v-13.8Zm-5.75-7.608V436.01h-4.847V414.445ZM314,400v7.866l-4.947,6.35V400H314Zm-5.917,15.409V400h-4.847v12.862l3.343,4.481Zm-5.784-15.28-4.378,5.641,4.378,5.868V400.132h0ZM280,400v7.866l4.981,6.35V400H280Zm5.918,15.376V400h4.88v12.862l-3.343,4.481Zm5.783-15.247,4.379,5.641-4.379,5.868V400.132Z" transform="translate(-280 -400)"/>
</svg>
